<svg width="21" height="22" viewBox="0 0 21 22" fill="none" xmlns="http://www.w3.org/2000/svg">
<path d="M18.6281 2.14172C18.0792 1.64224 15.8558 0.0365726 10.9043 0.0154936C10.9043 0.0154936 5.06166 -0.331852 2.21552 2.2627C0.632383 3.83538 0.0779164 6.13849 0.0142588 8.99515C-0.0493988 11.8518 -0.120437 17.2059 5.07457 18.6612H5.07919L5.07457 20.8782C5.07457 20.8782 5.04044 21.7764 5.63458 21.9569C6.35234 22.1805 6.77672 21.4968 7.46404 20.7618C7.84045 20.3576 8.35894 19.7656 8.75287 19.3138C11.0104 19.5215 13.2871 19.3489 15.4867 18.8033L15.3484 18.8326C16.0661 18.6008 20.1273 18.0848 20.7842 12.7316C21.4706 7.20527 20.4576 3.71898 18.6281 2.14172ZM19.2296 12.3284C18.6696 16.7962 15.3797 17.0803 14.7745 17.2728C13.4534 17.6064 11.9367 17.797 10.3748 17.797C9.92639 17.797 9.48171 17.7814 9.04164 17.7503L9.10068 17.7539C9.10068 17.7539 6.85145 20.4475 6.15122 21.1477C5.92242 21.3749 5.67056 21.3566 5.67517 20.903C5.67517 20.6069 5.6927 17.2205 5.6927 17.2205C1.29479 16.009 1.54942 11.4486 1.60109 9.06663C1.65275 6.68471 2.10297 4.72711 3.44346 3.41288C5.85323 1.24357 10.8139 1.56526 10.8139 1.56526C15.0052 1.58267 17.0118 2.83733 17.4786 3.25799C19.023 4.57314 19.8099 7.71849 19.2296 12.3275V12.3284ZM13.2227 8.85676V8.86959C13.2208 8.94096 13.1913 9.00887 13.1405 9.05929C13.0896 9.10972 13.0212 9.13881 12.9493 9.14058C12.8775 9.14234 12.8077 9.11664 12.7543 9.06877C12.701 9.0209 12.6682 8.95453 12.6627 8.88334V8.88242C12.6815 8.69108 12.6583 8.49796 12.5946 8.3164C12.531 8.13484 12.4284 7.96916 12.2941 7.8308C12.1597 7.69243 11.9967 7.58468 11.8163 7.51498C11.636 7.44527 11.4425 7.41527 11.2494 7.42705H11.253C11.1814 7.42154 11.1145 7.38887 11.0664 7.33581C11.0182 7.28275 10.9924 7.21335 10.9943 7.14194C10.9962 7.07053 11.0257 7.00257 11.0766 6.9521C11.1275 6.90163 11.1959 6.87251 11.2678 6.87075H11.2835H11.2826L11.3462 6.86984C11.6038 6.86975 11.8586 6.92226 12.0949 7.02411C12.3312 7.12596 12.5439 7.27498 12.7198 7.4619C12.8957 7.64882 13.031 7.86967 13.1173 8.11072C13.2037 8.35178 13.2393 8.6079 13.2218 8.86318V8.85768L13.2227 8.85676ZM14.1001 9.34341C14.1435 7.52145 12.9976 6.09541 10.8222 5.93594C10.7845 5.93477 10.7473 5.92604 10.7131 5.91027C10.6788 5.8945 10.6481 5.87202 10.6228 5.84417C10.5975 5.81632 10.5781 5.78369 10.5658 5.74822C10.5535 5.71275 10.5485 5.67517 10.5512 5.63775C10.5539 5.60033 10.5641 5.56383 10.5814 5.53044C10.5986 5.49705 10.6224 5.46746 10.6514 5.44344C10.6804 5.41942 10.714 5.40147 10.7502 5.39067C10.7864 5.37986 10.8243 5.37642 10.8619 5.38056H10.861H10.8766C11.3929 5.38054 11.9037 5.48536 12.3778 5.68857C12.8518 5.89179 13.279 6.18912 13.6331 6.56229C13.9873 6.93547 14.2609 7.37662 14.4372 7.85865C14.6135 8.34069 14.6887 8.85344 14.6583 9.36541L14.6592 9.35532C14.6542 9.42636 14.6221 9.49281 14.5694 9.54105C14.5167 9.58928 14.4474 9.61564 14.3757 9.6147C14.304 9.61376 14.2354 9.5856 14.184 9.536C14.1326 9.4864 14.1022 9.41913 14.0992 9.34799V9.34066L14.1001 9.34341ZM16.1298 9.91988V9.92171C16.126 9.99275 16.0951 10.0597 16.0433 10.1088C15.9914 10.1579 15.9227 10.1854 15.8511 10.1858C15.7795 10.1861 15.7104 10.1593 15.6581 10.1107C15.6058 10.0621 15.5742 9.99546 15.5698 9.92446C15.5476 6.42168 13.196 4.51449 10.3462 4.49432C10.3094 4.49432 10.2731 4.48714 10.2392 4.47319C10.2053 4.45923 10.1745 4.43878 10.1485 4.41299C10.1225 4.3872 10.1019 4.35659 10.0879 4.3229C10.0738 4.28921 10.0666 4.2531 10.0666 4.21663C10.0666 4.18016 10.0738 4.14405 10.0879 4.11036C10.1019 4.07667 10.1225 4.04606 10.1485 4.02027C10.1745 3.99449 10.2053 3.97403 10.2392 3.96008C10.2731 3.94612 10.3094 3.93894 10.3462 3.93894C13.5373 3.96093 16.1021 6.14857 16.1279 9.91896L16.1298 9.91988ZM15.6454 14.1338V14.1421C15.1786 14.9587 14.3049 15.8605 13.4054 15.5727L13.3971 15.5599C11.7934 14.9736 10.2901 14.1455 8.94016 13.1046L8.97798 13.1321C8.30624 12.6023 7.69686 11.9988 7.16144 11.3331L7.14391 11.3102C6.6591 10.7039 6.22643 10.0583 5.85046 9.38007L5.81356 9.30767C5.36873 8.57917 4.99995 7.80747 4.71292 7.00456L4.68525 6.91474C4.39556 6.02118 5.29876 5.15327 6.12539 4.68953H6.13369C6.29631 4.58612 6.4916 4.54587 6.68222 4.57647C6.87283 4.60707 7.04541 4.70638 7.16697 4.85542L7.16789 4.85725C7.16789 4.85725 7.70391 5.49237 7.93363 5.80672C8.14951 6.09908 8.44012 6.5674 8.5905 6.82859C8.70373 7.00707 8.7498 7.21956 8.7206 7.42851C8.69139 7.63747 8.58878 7.82944 8.4309 7.97053L8.42997 7.97144L7.91149 8.38386C7.83065 8.46137 7.76818 8.55577 7.7286 8.66023C7.68903 8.76469 7.67335 8.87659 7.68269 8.98782V8.98507C7.93942 9.83494 8.40278 10.609 9.03188 11.2389C9.66098 11.8688 10.4365 12.3352 11.29 12.5969L11.3287 12.607C11.4401 12.6157 11.5521 12.6 11.6567 12.5608C11.7613 12.5217 11.8559 12.4602 11.9339 12.3806L12.3491 11.8656C12.4917 11.708 12.6859 11.6058 12.8972 11.5771C13.1085 11.5484 13.3233 11.5951 13.5032 11.7088L13.4995 11.707C14.2496 12.1313 14.8981 12.5978 15.4895 13.1266L15.4794 13.1175C15.6294 13.2363 15.7292 13.4066 15.7593 13.5948C15.7893 13.7831 15.7474 13.9757 15.6417 14.1348L15.6436 14.132L15.6454 14.1338Z" fill="#828282"/>
</svg>
