<svg width="151" height="151" viewBox="0 0 151 151" fill="none" xmlns="http://www.w3.org/2000/svg">
<path d="M75.3809 0.981445L84.8368 19.315L99.7333 5.04515L102.724 25.4557L121.447 16.7959L117.648 37.0716L138.168 34.9603L127.992 52.904L148.086 57.57L132.635 71.2373L150.125 82.1749L131.073 90.0846L144.064 106.109L123.476 107.404L130.56 126.778L110.667 121.318L111.077 141.942L94.0348 130.319L87.7255 149.959L75.3809 133.431L63.0363 149.959L56.7269 130.319L39.6848 141.942L40.0943 121.318L20.2016 126.778L27.2856 107.404L6.69786 106.109L19.6888 90.0846L0.637024 82.1749L18.1271 71.2373L2.67584 57.57L22.7697 52.904L12.5934 34.9603L33.1135 37.0716L29.3149 16.7959L48.0377 25.4557L51.0284 5.04515L65.9249 19.315L75.3809 0.981445Z" fill="#18AC15"/>
<path d="M62.19 45.959C55.1772 53.6782 48.9709 59.0209 45.0488 68.9461C41.6382 77.5765 41.1562 89.6008 47.9717 96.8129C51.3261 100.363 55.7421 101.369 60.2083 102.634C67.055 104.573 74.1193 105.961 81.2633 106.003C89.6017 106.051 100.029 104.851 104.969 97.1845C109.316 90.4379 108.703 81.6218 106.083 74.3956C101.178 60.8624 90.2228 50.9426 75.6404 49.6746C71.6418 49.3269 64.5623 47.7062 62.6359 52.2012" stroke="white" stroke-width="3" stroke-linecap="round"/>
<path d="M60.1957 69.2916C60.3678 70.439 59.6911 70.2516 59.6911 70.9314C59.6911 71.4099 59.5063 72.0413 60.1396 72.0666C61.8478 72.1349 60.5011 70.9987 61.5411 70.553C61.7179 70.4772 61.3114 70.234 61.2608 70.0484C61.1866 69.7764 61.1074 69.3662 61.471 69.3056C61.9278 69.2295 62.4437 69.1797 62.4661 69.7401C62.4863 70.2453 62.4613 70.6863 62.5922 71.1837C62.7813 71.9021 62.4637 71.7318 61.9615 72.0666" stroke="white" stroke-width="3" stroke-linecap="round"/>
<path d="M81.0309 67.8863C81.203 69.0338 80.5263 68.8463 80.5263 69.5261C80.5263 70.0047 80.3415 70.636 80.9748 70.6613C82.683 70.7297 81.3363 69.5934 82.3763 69.1477C82.5531 69.0719 82.1466 68.8288 82.096 68.6432C82.0218 68.3711 81.9426 67.961 82.3062 67.9004C82.763 67.8242 83.2789 67.7744 83.3013 68.3348C83.3215 68.84 83.2965 69.281 83.4274 69.7784C83.6165 70.4968 83.2989 70.3266 82.7968 70.6613" stroke="white" stroke-width="3" stroke-linecap="round"/>
<path d="M63.5844 84.4028C66.3415 86.6845 66.9272 87.7316 70.7796 88.3726C74.0536 88.9173 78.344 88.3594 81.5084 87.5004C84.3474 86.7298 86.1367 85.7264 87.7056 83.4715" stroke="white" stroke-width="3" stroke-linecap="round"/>
<path d="M86.5706 81.5127L90.2604 83.9726" stroke="white" stroke-width="3" stroke-linecap="round"/>
<path d="M61.3577 84.5879C62.0958 84.4218 64.4326 83.213 64.4326 82.333" stroke="white" stroke-width="3" stroke-linecap="round"/>
</svg>
