<svg width="73" height="72" viewBox="0 0 73 72" fill="none" xmlns="http://www.w3.org/2000/svg">
<path d="M36.8696 0.273438L41.4087 9.04172L48.5595 2.21696L49.9952 11.9786L58.9827 7.83693L57.1593 17.5341L67.0096 16.5243L62.1246 25.1062L71.7703 27.3377L64.3532 33.8743L72.749 39.1054L63.6035 42.8883L69.8396 50.552L59.9568 51.1713L63.3574 60.4372L53.8082 57.8259L54.0048 67.6898L45.8241 62.1308L42.7954 71.5238L36.8696 63.6195L30.9438 71.5238L27.9151 62.1308L19.7343 67.6898L19.9309 57.8259L10.3818 60.4372L13.7823 51.1713L3.89955 50.552L10.1356 42.8883L0.990154 39.1054L9.38594 33.8743L1.96885 27.3377L11.6145 25.1062L6.72959 16.5243L16.5799 17.5341L14.7565 7.83693L23.744 11.9786L25.1796 2.21696L32.3304 9.04172L36.8696 0.273438Z" fill="#FF1405"/>
</svg>
