<svg width="73" height="73" viewBox="0 0 73 73" fill="none" xmlns="http://www.w3.org/2000/svg">
<path d="M36.5176 0.824219L41.0499 9.61145L48.1897 2.77195L49.6232 12.5547L58.597 8.40405L56.7763 18.1222L66.6115 17.1102L61.7341 25.7106L71.365 27.947L63.9593 34.4977L72.3422 39.7401L63.2107 43.5312L69.4373 51.2114L59.5696 51.8321L62.965 61.118L53.4304 58.5011L53.6267 68.3863L45.4585 62.8153L42.4344 72.2286L36.5176 64.3072L30.6009 72.2286L27.5768 62.8153L19.4086 68.3863L19.6049 58.5011L10.0703 61.118L13.4657 51.8321L3.59804 51.2114L9.82457 43.5312L0.693092 39.7401L9.07604 34.4977L1.67029 27.947L11.3012 25.7106L6.42374 17.1102L16.259 18.1222L14.4383 8.40405L23.4121 12.5547L24.8456 2.77195L31.9854 9.61145L36.5176 0.824219Z" fill="#18AC15"/>
</svg>
