<svg width="130" height="30" viewBox="0 0 130 30" fill="none" xmlns="http://www.w3.org/2000/svg">
<path d="M56.7769 5.24113C53.8779 2.88147 52.3938 1.67734 48.6054 1.67734C45.9599 1.67734 42.7314 1.24236 40.1818 2.14531C37.8764 2.96183 35.0872 2.80323 32.6583 2.57729C29.6955 2.30168 26.6609 2.18342 23.7308 1.74934C21.3015 1.38943 18.6645 1.67734 16.2072 1.67734C13.9568 1.67734 11.6949 1.54522 9.47564 1.92933C7.08677 2.34278 3.11012 3.72097 2.04207 6.21308C-0.181347 11.4011 1.52903 20.2027 6.91979 22.8981C10.7156 24.796 16.4278 25.0278 20.545 25.6159C26.4663 26.4618 32.9539 26.1587 38.8859 25.5799C51.3447 24.3645 63.6812 26.7425 76.0358 27.9918C83.4678 28.7434 90.8416 29.2944 98.3185 29.2157C101.541 29.1818 104.696 28.3215 107.894 27.9918C111.368 27.6336 115.025 27.0477 118.315 25.8139C120.894 24.8469 123.368 22.9792 125.335 21.1162C126.361 20.1443 127.085 18.9764 127.981 17.8764C129.116 16.4824 128.891 15.4063 129.043 13.7366C129.299 10.9198 129.63 7.26745 127.225 5.11514C124.679 2.83716 120.19 1.94739 116.965 1.35336C112.754 0.577642 108.553 0.335891 104.294 0.849389C99.5965 1.41577 94.9517 2.64928 90.2009 2.64928C84.6332 2.64928 79.2522 2.55006 73.7139 1.82133C70.9479 1.45739 68.3612 0.705398 65.5604 0.705398C63.8385 0.705398 62.1166 0.705398 60.3947 0.705398C57.9745 0.705398 55.474 0.384389 53.2131 1.35336" stroke="#FF1111" stroke-width="0.5" stroke-linecap="round"/>
</svg>
