<svg width="76" height="26" viewBox="0 0 76 26" fill="none" xmlns="http://www.w3.org/2000/svg">
<path d="M31.201 3.17187C27.8192 3.8568 24.6461 3.81036 21.2296 3.31587C19.3094 3.03794 17.4498 2.2277 15.5059 2.19993C10.8935 2.13404 7.71586 3.89544 4.47255 7.05965C2.34334 9.13693 1.28718 10.9047 1.08875 13.8812C0.862512 17.2748 2.73732 19.7551 5.67848 21.3148C7.25659 22.1517 9.50794 22.4623 11.2402 22.9347C14.289 23.7662 17.6044 24.2145 20.7616 24.3386C25.4633 24.5235 29.8957 22.6107 34.6208 22.6107C38.3862 22.6107 42.0268 23.4309 45.7621 23.6007C49.629 23.7764 53.4492 25.4473 57.3715 25.5266C62.2781 25.6257 65.9506 24.5222 69.7907 21.4588C71.7585 19.889 74.6001 18.404 74.9204 15.6811C75.3081 12.3857 72.2937 9.18284 70.0607 7.20364C68.1356 5.49725 66.2525 4.0918 63.9951 2.84789C61.7346 1.60231 60.0494 1.60154 57.6234 1.084C54.0747 0.326931 50.0945 0.260796 46.5001 0.904007C43.18 1.49812 39.8698 3.53743 36.5647 3.80184C33.0915 4.07969 29.6179 5.13419 26.3413 3.49586" stroke="#FF1111" stroke-width="0.5" stroke-linecap="round"/>
</svg>
