<svg width="74" height="39" viewBox="0 0 74 39" fill="none" xmlns="http://www.w3.org/2000/svg">
<path d="M46.3844 0.636719C32.7085 0.899717 14.8655 -0.444262 3.59907 8.31855C-0.119259 11.2106 1.04895 17.6176 1.04895 21.7303C1.04895 29.1711 10.7433 33.7687 16.696 35.4883C27.3722 38.5726 41.9205 39.0211 52.2402 34.7013C54.7457 33.6524 57.367 33.4223 59.922 32.5919C62.4809 31.7603 64.5148 29.8947 66.5964 28.2787C69.9853 25.6479 73.0189 24.1567 73.0189 19.5894C73.0189 17.4061 73.3646 14.9363 72.4522 12.8836C71.514 10.7726 66.8592 8.20504 65.0223 6.93331C58.3252 2.29686 48.5993 1.7701 40.7175 1.7701" stroke="#FF1111" stroke-width="0.5" stroke-linecap="round"/>
</svg>
