<svg width="113" height="34" viewBox="0 0 113 34" fill="none" xmlns="http://www.w3.org/2000/svg">
<path d="M52.9468 2.58345C45.4108 2.58345 37.1249 3.54933 29.6679 2.55506C22.9648 1.66131 14.1003 -0.130676 7.75161 2.86734C4.59006 4.36029 3.02909 5.58752 1.59121 8.94257C0.538746 11.3983 0.281834 15.6845 1.6196 18.169C3.32855 21.3427 5.2408 22.9343 7.86516 25.4649C12.8501 30.2718 17.9029 30.1775 24.5011 30.1775C31.4361 30.1775 37.9722 28.905 44.714 27.6793C51.3784 26.4675 61.1002 27.598 67.4535 29.6665C74.5677 31.9827 82.4454 33.2435 89.9091 33.2435C93.4526 33.2435 96.5736 33.322 99.7885 31.5969C102.898 29.9287 108.319 27.6341 110.065 24.3294C113.9 17.0701 111.346 11.5312 107.595 4.96812C104.062 -1.21475 93.7658 1.96138 88.7168 3.57706C84.9702 4.77596 81.3859 5.13845 77.4748 5.13845C73.4461 5.13845 69.6075 6.11168 65.6082 6.16045C59.4457 6.2356 53.1018 4.85207 47.8368 1.56145" stroke="#FF1111" stroke-width="0.5" stroke-linecap="round"/>
</svg>
