<svg width="168" height="37" viewBox="0 0 168 37" fill="none" xmlns="http://www.w3.org/2000/svg">
<path d="M109.981 2.49218C105.094 2.49218 100.276 1.98118 95.3895 1.98118C92.4036 1.98118 88.9813 1.50204 86.1347 2.49218C83.2536 3.4943 80.155 3.74644 77.1638 4.13873C73.0169 4.68259 68.9316 6.06918 64.7294 6.06918C56.3372 6.06918 47.848 7.44398 39.4633 7.60218C33.1096 7.72206 27.0871 6.06918 20.7834 6.06918C18.1527 6.06918 15.5219 6.06918 12.8912 6.06918C9.82775 6.06918 7.34196 7.14356 4.43134 7.99963C3.12449 8.384 1.18469 12.0359 1.13823 13.3367C1.06284 15.4478 0.90437 17.7966 1.16662 19.8946C1.39164 21.6948 4.25041 24.2759 5.73724 25.2317C6.91947 25.9917 8.20336 26.4564 9.42779 27.1338C11.7328 28.4089 14.3039 28.1746 16.5818 29.3481C18.1271 30.1442 20.2012 30.336 21.8905 30.6256C24.3067 31.0398 26.5603 32.0993 28.9594 32.5277C34.7565 33.5629 40.7637 33.7935 46.6173 34.4297C55.5488 35.4005 66.0004 36.3795 74.921 34.9407C84.6731 33.3678 93.945 32.6412 103.849 32.6412C114.305 32.6412 124.665 33.0966 134.992 34.9407C138.874 35.634 142.9 34.6571 146.773 35.253C151.174 35.9301 156.113 37.2209 160.57 35.7072C164.843 34.2561 165.554 30.7729 165.68 26.8499C165.785 23.6083 167.436 20.4836 166.674 17.0557C166.085 14.4039 163.618 12.2988 161.479 10.8953C156.074 7.34835 148.977 4.52508 142.799 2.71929C134.089 0.173404 124.689 2.48076 115.858 1.44179C113.48 1.16203 108.457 -1.10144 106.915 1.98118" stroke="#FF1111" stroke-width="0.5" stroke-linecap="round"/>
</svg>
