<svg width="136" height="32" viewBox="0 0 136 32" fill="none" xmlns="http://www.w3.org/2000/svg">
<path d="M75.272 8.21387C72.0617 6.97354 68.7013 6.36497 65.3926 5.43175C62.9949 4.75548 60.4409 3.60925 58.0115 3.21742C55.8159 2.86329 53.3571 2.29252 51.1698 2.11025C47.8653 1.83488 44.9192 0.548858 41.6027 0.548858C36.9141 0.548858 32.2091 0.434533 27.5218 0.548858C22.0772 0.681653 18.579 3.324 13.9803 5.43175C10.9469 6.82207 7.56244 8.65677 4.98099 10.7689C3.02275 12.3711 0.19294 16.4715 0.694259 19.2288C3.37412 33.968 26.5102 31.0785 37.1172 30.6411C47.2415 30.2236 56.9857 29.3396 67.1527 30.1869C78.4572 31.1289 90.1186 32.557 101.447 31.0953C107.974 30.2531 114.426 30.1869 121.007 30.1869C125.284 30.1869 134.068 30.4031 135.456 24.8498C136.327 21.3669 133.034 18.2336 130.176 16.8725C127.578 15.6355 125.98 14.4735 123.022 13.8349C118.407 12.8384 114.05 10.8333 109.623 9.23587C102.618 6.70832 95.0291 4.42186 87.536 4.15425C83.9365 4.0257 80.0463 3.80259 76.4643 4.23942C73.6005 4.58867 71.0028 6.16986 68.1179 6.16986" stroke="#FF1111" stroke-width="0.5" stroke-linecap="round"/>
</svg>
