<svg width="66" height="33" viewBox="0 0 66 33" fill="none" xmlns="http://www.w3.org/2000/svg">
<path d="M35.3673 4.31405C28.7211 3.85961 22.1218 3.80305 15.4667 3.80305C13.2492 3.80305 10.671 3.4383 8.53979 4.08694C5.34162 5.0603 1.31747 9.12069 1.13029 12.4901C0.95343 15.6735 0.433447 20.1452 1.38579 23.1927C3.1283 28.7687 9.96737 30.0149 14.9273 31.17C19.3268 32.1945 24.8959 31.9081 29.434 31.9081C34.8847 31.9081 40.3354 31.9081 45.7861 31.9081C51.2723 31.9081 54.7169 31.0368 59.1572 27.7065C62.8499 24.937 65.0054 20.5923 65.0054 15.84C65.0054 11.6968 59.9782 7.56201 56.8577 5.67672C51.8156 2.63042 44.7733 1.24805 38.9159 1.24805C33.9954 1.24805 29.7582 1.75308 25.6583 3.80305" stroke="#FF1111" stroke-width="0.5" stroke-linecap="round"/>
</svg>
