<svg width="13" height="12" viewBox="0 0 13 12" fill="none" xmlns="http://www.w3.org/2000/svg">
<path d="M8.99426 10.1699C8.13102 10.1706 7.28419 9.95876 6.54646 9.55762C5.80873 9.15648 5.20853 8.58146 4.81154 7.8955H8.54404C8.81998 7.8955 9.07414 7.75904 9.19033 7.5381C9.42996 7.10922 9.0814 6.59586 8.54404 6.59586H4.33227C4.29596 6.38142 4.27418 6.16698 4.27418 5.94604C4.27418 5.7251 4.29596 5.51066 4.33227 5.29622H8.54404C8.81998 5.29622 9.07414 5.15976 9.19033 4.93882C9.24733 4.84003 9.27487 4.72974 9.27028 4.61863C9.26569 4.50752 9.22913 4.39935 9.16413 4.3046C9.09914 4.20984 9.00791 4.1317 8.89928 4.07774C8.79064 4.02378 8.66828 3.99582 8.54404 3.99658H4.81154C5.20923 3.31114 5.80959 2.73656 6.54716 2.33551C7.28474 1.93445 8.1312 1.72231 8.99426 1.72221C9.90197 1.72221 10.7516 1.95614 11.4778 2.35253C11.8408 2.55398 12.3128 2.52149 12.6178 2.24856C13.039 1.87167 12.9446 1.25434 12.4363 0.974914C11.402 0.402671 10.2103 0.0989482 8.99426 0.0976562C6.14769 0.0976563 3.73681 1.72871 2.83636 3.99658H0.730479C0.454536 3.99658 0.200377 4.13304 0.0769287 4.35398C-0.162706 4.78936 0.185854 5.29622 0.730479 5.29622H2.50233C2.44352 5.72784 2.44352 6.16425 2.50233 6.59586H0.730479C0.454536 6.59586 0.200377 6.73233 0.0841904 6.95326C-0.162706 7.38864 0.185854 7.8955 0.730479 7.8955H2.83636C3.73681 10.1634 6.14769 11.7944 8.99426 11.7944C10.2578 11.7944 11.4342 11.476 12.4363 10.9172C12.9374 10.6377 13.0318 10.0139 12.6106 9.63702C12.3056 9.3641 11.8336 9.33161 11.4705 9.53955C10.7516 9.94244 9.90923 10.1699 8.99426 10.1699Z" fill="#005595"/>
</svg>
