<svg width="170" height="35" viewBox="0 0 170 35" fill="none" xmlns="http://www.w3.org/2000/svg">
<path d="M0.823242 10.4922H5.51609C7.38764 10.4922 8.78432 10.773 9.73406 11.3112C10.6838 11.8727 11.1587 12.8321 11.1587 14.2361C11.1587 15.1955 11.019 15.9442 10.7117 16.5058C10.4045 17.0674 9.87373 17.512 9.06365 17.8162L11.3821 24.719H7.5273L5.65575 18.331H4.59428V24.719H0.823242V10.4922ZM5.62782 16.5292C6.38203 16.5292 6.91277 16.3654 7.22004 16.0378C7.5273 15.7102 7.66697 15.1955 7.66697 14.5403C7.66697 13.8851 7.5273 13.4171 7.24797 13.0895C6.96863 12.7619 6.49376 12.5981 5.79542 12.5981H4.56634V16.5292H5.62782Z" fill="#1A1A1C"/>
<path d="M13.4209 10.4922H21.0747V12.6449H17.164V16.1782H20.1249V18.3544H17.164V22.6131H21.1026V24.7424H13.4209V10.4922Z" fill="#1A1A1C"/>
<path d="M166.674 0.940578L71.917 9.28125L75.0521 34.2739L169.809 25.9332L166.674 0.940578Z" fill="#FF1405"/>
<path opacity="0.2" d="M167.957 3.65395L72.7324 6.43945L73.7794 31.5553L169.004 28.7697L167.957 3.65395Z" fill="#303030"/>
<path d="M168.457 5.01172H73.1895V30.2025H168.457V5.01172Z" fill="#FF5252"/>
<path d="M23.0299 10.4922H27.0524L28.9239 18.7756L30.9351 10.4922H34.8179L35.1252 24.7424H32.4715L32.1642 15.2657L30.1809 24.7424H27.8066L25.6836 15.1721L25.4322 24.719H22.7227L23.0299 10.4922Z" fill="#1A1A1C"/>
<path d="M38.5326 23.7592C37.7504 22.9637 37.3594 21.7937 37.3594 20.2494V14.9611C37.3594 13.4168 37.7504 12.2468 38.5326 11.4746C39.3147 10.7025 40.6276 10.3047 42.4712 10.3047C44.3148 10.3047 45.6277 10.7025 46.4378 11.4746C47.2199 12.2702 47.611 13.4168 47.611 14.9611V20.2494C47.611 21.7937 47.2199 22.9637 46.4378 23.7592C45.6556 24.5548 44.3148 24.9526 42.4712 24.9526C40.6276 24.9526 39.3147 24.5548 38.5326 23.7592ZM43.5047 22.2617C43.6723 21.9575 43.7561 21.5597 43.7561 21.0449V14.189C43.7561 13.6508 43.6723 13.253 43.5047 12.9488C43.3371 12.6446 42.974 12.5042 42.4433 12.5042C41.9405 12.5042 41.6053 12.6446 41.4377 12.9488C41.2701 13.253 41.1863 13.6508 41.1863 14.1656V21.0215C41.1863 21.5363 41.2701 21.9341 41.4097 22.2383C41.5773 22.5425 41.9125 22.6829 42.4433 22.6829C42.974 22.7063 43.3371 22.5659 43.5047 22.2617Z" fill="#1A1A1C"/>
<path d="M51.2427 12.8321H48.6729V10.4922H57.5557V12.8321H55.0138V24.7424H51.2427V12.8321Z" fill="#1A1A1C"/>
<path d="M66.7463 22.6131V24.7424H59.1484V10.4922H66.6905V12.6215H62.8077V16.1782H65.7687V18.3544H62.8077V22.6131H66.7463Z" fill="#1A1A1C"/>
<path d="M83.7295 10.4922H87.5005V16.2484H90.1263V10.4922H93.8973V24.7424H90.1263V18.4948H87.5005V24.719H83.7295V10.4922Z" fill="#FBFBFD"/>
<path d="M96.4668 10.4922H104.121V12.6449H100.238V16.1782H103.199V18.3544H100.238V22.613H104.176V24.7424H96.4947V10.4922H96.4668Z" fill="#FBFBFD"/>
<path d="M105.853 10.4922H109.624V22.613H113.534V24.7424H105.853V10.4922Z" fill="#FBFBFD"/>
<path d="M115.155 10.4922H120.853C122.362 10.4922 123.479 10.8432 124.205 11.5452C124.96 12.2471 125.323 13.2767 125.323 14.6105C125.323 16.1314 124.904 17.1844 124.038 17.7928C123.172 18.3778 121.971 18.6819 120.406 18.6819H118.898V24.7424H115.127V10.4922H115.155ZM120.183 16.4824C120.853 16.4824 121.272 16.342 121.496 16.0378C121.719 15.7336 121.831 15.2422 121.831 14.5637C121.831 13.9319 121.719 13.4639 121.524 13.1597C121.3 12.8555 120.853 12.6917 120.183 12.6917H118.954V16.4824H120.183Z" fill="#FBFBFD"/>
<path d="M127.138 10.4922H134.792V12.6449H130.909V16.1782H133.87V18.3544H130.909V22.613H134.847V24.7424H127.166V10.4922H127.138Z" fill="#FBFBFD"/>
<path d="M136.524 10.4922H141.217C143.088 10.4922 144.485 10.773 145.435 11.3112C146.385 11.8727 146.859 12.8321 146.859 14.2361C146.859 15.1954 146.72 15.9442 146.413 16.5058C146.105 17.0674 145.575 17.512 144.764 17.8162L147.083 24.719H143.2L141.329 18.331H140.267V24.719H136.496V10.4922H136.524ZM141.329 16.5292C142.083 16.5292 142.614 16.3654 142.921 16.0378C143.228 15.7102 143.368 15.1954 143.368 14.5403C143.368 13.8851 143.228 13.4171 142.949 13.0895C142.669 12.7619 142.195 12.5981 141.496 12.5981H140.267V16.5292H141.329Z" fill="#FBFBFD"/>
<path d="M149.932 23.8529C149.15 23.1276 148.731 21.981 148.675 20.4132L151.887 20.0154C151.887 20.928 152.027 21.5598 152.278 21.9576C152.53 22.3554 152.893 22.5426 153.368 22.5426C154.01 22.5426 154.317 22.1916 154.317 21.513C154.317 20.9514 154.178 20.4834 153.871 20.0856C153.563 19.6878 153.088 19.2667 152.446 18.7987L150.965 17.7223C150.239 17.2075 149.68 16.6693 149.289 16.0843C148.898 15.4994 148.703 14.8208 148.703 14.0252C148.703 12.8318 149.122 11.9192 149.96 11.2641C150.798 10.6089 151.971 10.3047 153.451 10.3047C155.072 10.3047 156.161 10.7025 156.748 11.4747C157.334 12.2702 157.642 13.2062 157.669 14.3294L154.429 14.657C154.401 13.9082 154.317 13.3934 154.178 13.0658C154.038 12.7382 153.759 12.5744 153.312 12.5744C152.977 12.5744 152.753 12.6914 152.558 12.9254C152.39 13.1594 152.306 13.4168 152.306 13.6976C152.306 14.189 152.446 14.5868 152.697 14.9144C152.949 15.242 153.368 15.6163 153.954 16.0375L155.351 17.0671C156.189 17.6755 156.831 18.3073 157.306 18.9625C157.781 19.641 158.005 20.4132 158.005 21.3258C158.005 22.0044 157.809 22.5894 157.446 23.151C157.083 23.6891 156.552 24.1337 155.882 24.4379C155.211 24.7655 154.429 24.9059 153.563 24.9059C151.915 24.9527 150.714 24.5783 149.932 23.8529Z" fill="#FBFBFD"/>
</svg>
