<svg width="19" height="19" viewBox="0 0 19 19" fill="none" xmlns="http://www.w3.org/2000/svg">
<path d="M11.115 8.645L9.12 8.20167C8.36 8.01167 7.505 7.79 7.505 7.06167C7.505 6.33333 8.10667 5.82667 9.215 5.82667C11.4633 5.82667 11.2733 7.37833 12.3817 7.37833C12.9517 7.37833 13.4583 7.06167 13.4583 6.46C13.4583 5.06667 11.2417 4.02167 9.34167 4.02167C7.315 4.02167 5.16167 4.87667 5.16167 7.18833C5.16167 8.29667 5.54167 9.5 7.72667 10.07L10.45 10.7667C11.2733 10.9567 11.5267 11.4317 11.5267 11.8433C11.5267 12.54 10.7983 13.3 9.56333 13.3C7.125 13.3 7.47333 11.3683 6.175 11.3683C5.605 11.3683 5.13 11.78 5.13 12.35C5.13 13.49 6.52333 15.0417 9.56333 15.0417C12.4767 15.0417 13.9333 13.585 13.9333 11.685C13.9017 10.4183 13.3317 9.15167 11.115 8.645ZM18.3033 11.0517C18.3983 10.545 18.43 10.0383 18.43 9.5C18.43 4.56 14.44 0.57 9.5 0.57C8.96167 0.57 8.455 0.601667 7.94833 0.696667C7.15667 0.253333 6.27 0 5.32 0C2.375 0 0 2.375 0 5.32C0 6.27 0.253333 7.18833 0.696667 7.94833C0.601667 8.455 0.57 8.96167 0.57 9.5C0.57 14.44 4.56 18.43 9.5 18.43C10.0383 18.43 10.545 18.3983 11.0517 18.3033C11.8433 18.7467 12.73 19 13.68 19C16.625 19 19 16.625 19 13.68C19 12.73 18.7467 11.8117 18.3033 11.0517ZM13.68 17.6383C12.9833 17.6383 12.3183 17.4483 11.7167 17.1317L11.305 16.8783L10.83 16.9733C10.4183 17.0367 9.975 17.1 9.5 17.1C7.49275 17.1 5.56772 16.3026 4.14838 14.8833C2.72904 13.4639 1.93167 11.5389 1.93167 9.53167C1.93167 9.08833 1.96333 8.645 2.05833 8.20167L2.15333 7.72667L1.9 7.315C1.55167 6.71333 1.39333 6.04833 1.39333 5.35167C1.39333 3.16667 3.16667 1.39333 5.35167 1.39333C6.04833 1.39333 6.71333 1.58333 7.315 1.9L7.72667 2.15333L8.20167 2.05833C8.645 1.995 9.08833 1.93167 9.53167 1.93167C10.5256 1.93167 11.5097 2.12743 12.4279 2.50777C13.3462 2.88812 14.1805 3.4456 14.8833 4.14838C15.5861 4.85117 16.1436 5.68549 16.5239 6.60372C16.9042 7.52196 17.1 8.50611 17.1 9.5C17.1 9.94333 17.0683 10.3867 16.9733 10.83L16.8783 11.305L17.1317 11.7167C17.48 12.3183 17.6383 12.9833 17.6383 13.68C17.6383 15.865 15.865 17.6383 13.68 17.6383Z" fill="#828282"/>
</svg>
