<svg width="151" height="151" viewBox="0 0 151 151" fill="none" xmlns="http://www.w3.org/2000/svg">
<path d="M75.0449 0.232422L84.5009 18.566L99.3974 4.29613L102.388 24.7067L121.111 16.0469L117.312 36.3226L137.832 34.2113L127.656 52.155L147.75 56.821L132.299 70.4882L149.789 81.4259L130.737 89.3356L143.728 105.36L123.14 106.655L130.224 126.029L110.331 120.569L110.741 141.193L93.6989 129.57L87.3895 149.21L75.0449 132.682L62.7003 149.21L56.3909 129.57L39.3489 141.193L39.7584 120.569L19.8656 126.029L26.9497 106.655L6.36192 105.36L19.3529 89.3356L0.301086 81.4259L17.7911 70.4882L2.3399 56.821L22.4337 52.155L12.2574 34.2113L32.7776 36.3226L28.979 16.0469L47.7017 24.7067L50.6925 4.29613L65.589 18.566L75.0449 0.232422Z" fill="#FF1405"/>
<path d="M61.9591 45.4492C55.0022 53.1069 48.8454 58.4071 44.9545 68.2532C41.5711 76.8149 41.0929 88.7434 47.8541 95.898C51.1817 99.4194 55.5626 100.418 59.9933 101.673C66.7854 103.596 73.7934 104.973 80.8805 105.015C89.1525 105.063 99.497 103.872 104.397 96.2666C108.709 89.5738 108.102 80.828 105.503 73.6593C100.636 60.2339 89.7686 50.3931 75.3024 49.1352C71.3356 48.7903 64.3125 47.1825 62.4014 51.6417" stroke="white" stroke-width="3" stroke-linecap="round"/>
<path d="M59.9805 68.5961C60.1512 69.7343 59.48 69.5484 59.48 70.2228C59.48 70.6975 59.2967 71.3238 59.9249 71.3489C61.6195 71.4167 60.2835 70.2895 61.3152 69.8474C61.4906 69.7722 61.0874 69.531 61.0372 69.3468C60.9636 69.077 60.885 68.6701 61.2457 68.61C61.6989 68.5344 62.2106 68.485 62.2328 69.041C62.2529 69.5421 62.2281 69.9796 62.358 70.473C62.5455 71.1857 62.2304 71.0168 61.7323 71.3489" stroke="white" stroke-width="3" stroke-linecap="round"/>
<path d="M80.6499 67.2015C80.8207 68.3398 80.1494 68.1539 80.1494 68.8282C80.1494 69.303 79.9661 69.9293 80.5943 69.9544C82.2889 70.0222 80.953 68.895 81.9847 68.4528C82.1601 68.3776 81.7568 68.1364 81.7066 67.9523C81.633 67.6824 81.5544 67.2756 81.9151 67.2154C82.3683 67.1399 82.88 67.0905 82.9023 67.6464C82.9223 68.1476 82.8976 68.5851 83.0274 69.0785C83.215 69.7912 82.8999 69.6223 82.4018 69.9544" stroke="white" stroke-width="3" stroke-linecap="round"/>
<path d="M63.3423 84.7224C66.0774 82.4588 66.6584 81.4201 70.4801 80.7842C73.728 80.2438 77.9843 80.7973 81.1234 81.6494C83.9398 82.4139 85.7148 83.4093 87.2712 85.6462" stroke="white" stroke-width="3" stroke-linecap="round"/>
<path d="M86.1462 87.3633L89.8067 84.923" stroke="white" stroke-width="3" stroke-linecap="round"/>
<path d="M61.1335 84.3128C61.8658 84.4776 64.1839 85.6769 64.1839 86.5498" stroke="white" stroke-width="3" stroke-linecap="round"/>
</svg>
