<svg width="21" height="19" viewBox="0 0 21 19" fill="none" xmlns="http://www.w3.org/2000/svg">
<path d="M20.4654 0.369767C20.2502 0.187563 19.9896 0.0670261 19.7113 0.0209684C19.433 -0.0250894 19.1475 0.00505298 18.885 0.108192L0.986527 7.13196C0.672591 7.25147 0.406676 7.47078 0.229727 7.75612C0.0527778 8.04146 -0.0253929 8.37701 0.00725125 8.7111C0.0363751 9.04506 0.173064 9.36058 0.396821 9.61036C0.620577 9.86013 0.919342 10.0307 1.24831 10.0965L5.79564 10.9975V16.6746C5.79548 16.9817 5.88663 17.282 6.05753 17.5373C6.22843 17.7925 6.47137 17.9913 6.75553 18.1084C6.94359 18.184 7.14426 18.2235 7.34697 18.2247C7.55072 18.2254 7.75257 18.1855 7.9407 18.1073C8.12883 18.0291 8.29946 17.9142 8.4426 17.7693L10.9635 15.2602L14.774 18.6122C15.0553 18.8601 15.4169 18.9978 15.792 18.9997C15.957 19.0031 16.1212 18.9769 16.2768 18.9222C16.5327 18.8413 16.763 18.6951 16.9449 18.498C17.1269 18.3009 17.2542 18.0597 17.3143 17.7984L20.9599 1.89078C21.0236 1.61628 21.0112 1.32963 20.9241 1.06163C20.837 0.793637 20.6784 0.554442 20.4654 0.369767ZM6.38709 9.53457L1.55858 8.57547L15.0939 3.25678L6.38709 9.53457ZM7.34697 16.6746V12.0825L9.79031 14.2332L7.34697 16.6746ZM15.8017 17.4496L7.81237 10.4259L19.3213 2.12329L15.8017 17.4496Z" fill="#828282"/>
</svg>
